<?xml version="1.0" encoding="utf-8"?>
<!-- Generator: Adobe Illustrator 16.0.0, SVG Export Plug-In . SVG Version: 6.00 Build 0)  -->
<!DOCTYPE svg PUBLIC "-//W3C//DTD SVG 1.1//EN" "http://www.w3.org/Graphics/SVG/1.1/DTD/svg11.dtd">
<svg version="1.1" id="Layer_1" xmlns="http://www.w3.org/2000/svg" xmlns:xlink="http://www.w3.org/1999/xlink" x="0px" y="0px"
	 width="50px" height="50px" viewBox="0 0 50 50" enable-background="new 0 0 50 50" xml:space="preserve">
<g>
	<g>
		<path fill="#FFFFFF" d="M9.837,44.143c-1.345,0-2.438-1.142-2.438-2.544V8.979c0-1.402,1.094-2.542,2.438-2.542h4.707V3.759
			c0-0.982,0.799-1.781,1.781-1.781s1.781,0.799,1.781,1.781v2.677h13.308V3.759c0-0.982,0.799-1.781,1.78-1.781
			s1.779,0.799,1.779,1.781v2.677h4.71c1.344,0,2.438,1.141,2.438,2.542v32.62c0,1.402-1.094,2.544-2.438,2.544H9.837z"/>
		<path d="M33.194,2.487c0.701,0,1.271,0.569,1.271,1.272v3.186h5.219c1.06,0,1.929,0.915,1.929,2.034v1.516v29.586v1.518
			c0,1.12-0.869,2.035-1.929,2.035H9.837c-1.062,0-1.93-0.915-1.93-2.035v-1.518V10.495V8.979c0-1.119,0.868-2.034,1.93-2.034h5.215
			V3.759c0-0.703,0.571-1.272,1.272-1.272c0.703,0,1.272,0.569,1.272,1.272v3.186h14.326V3.759
			C31.923,3.057,32.493,2.487,33.194,2.487 M33.194,1.47c-1.262,0-2.289,1.027-2.289,2.29v2.168H18.615V3.759
			c0-1.262-1.027-2.29-2.29-2.29c-1.263,0-2.29,1.027-2.29,2.29v2.168H9.837c-1.625,0-2.947,1.369-2.947,3.051v1.516v29.586v1.518
			c0,1.684,1.322,3.053,2.947,3.053h29.846c1.624,0,2.946-1.369,2.946-3.053v-1.518V10.495V8.979c0-1.682-1.322-3.051-2.946-3.051
			h-4.201V3.759C35.482,2.497,34.456,1.47,33.194,1.47L33.194,1.47z"/>
	</g>
	<g>
		<path fill="#FFFFFF" d="M41.601,40.749c0,1.118-0.869,2.033-1.93,2.033H9.847c-1.06,0-1.927-0.915-1.927-2.033V9.747
			c0-1.119,0.867-2.034,1.927-2.034h29.824c1.061,0,1.93,0.915,1.93,2.034V40.749z"/>
		<path fill="none" stroke="#000000" stroke-width="0.3813" stroke-miterlimit="10" d="M41.601,40.749
			c0,1.118-0.869,2.033-1.93,2.033H9.847c-1.06,0-1.927-0.915-1.927-2.033V9.747c0-1.119,0.867-2.034,1.927-2.034h29.824
			c1.061,0,1.93,0.915,1.93,2.034V40.749z"/>
	</g>
	<g>
		<path fill="#FFFFFF" d="M41.601,39.647c0,1.119-0.869,2.034-1.93,2.034H9.847c-1.06,0-1.927-0.915-1.927-2.034V8.99
			c0-1.119,0.867-2.034,1.927-2.034h29.824c1.061,0,1.93,0.915,1.93,2.034V39.647z"/>
		<path fill="none" stroke="#000000" stroke-width="0.3813" stroke-miterlimit="10" d="M41.601,39.647
			c0,1.119-0.869,2.034-1.93,2.034H9.847c-1.06,0-1.927-0.915-1.927-2.034V8.99c0-1.119,0.867-2.034,1.927-2.034h29.824
			c1.061,0,1.93,0.915,1.93,2.034V39.647z"/>
	</g>
	<g>
		<path fill="#FFFFFF" d="M41.538,38.629c0,1.09-0.863,1.98-1.921,1.98H9.902c-1.056,0-1.921-0.891-1.921-1.98V8.783
			c0-1.088,0.865-1.98,1.921-1.98h29.715c1.058,0,1.921,0.892,1.921,1.98V38.629z"/>
		<path fill="none" stroke="#000000" stroke-width="0.3755" stroke-miterlimit="10" d="M41.538,38.629c0,1.09-0.863,1.98-1.921,1.98
			H9.902c-1.056,0-1.921-0.891-1.921-1.98V8.783c0-1.088,0.865-1.98,1.921-1.98h29.715c1.058,0,1.921,0.892,1.921,1.98V38.629z"/>
	</g>
	<g>
		<path fill="#FFFFFF" stroke="#000000" stroke-width="0.3813" stroke-miterlimit="10" d="M41.601,16.612H7.92V8.856
			c0-1.119,0.867-2.034,1.927-2.034h29.824c1.061,0,1.93,0.915,1.93,2.034V16.612z"/>
		<path fill="none" stroke="#000000" stroke-width="0.3813" stroke-miterlimit="10" d="M41.601,16.612H7.92V8.856
			c0-1.119,0.867-2.034,1.927-2.034h29.824c1.061,0,1.93,0.915,1.93,2.034V16.612z"/>
	</g>
	<g>
		<path d="M17.536,20.79h-0.037l-2.278,1.083l-0.459-2.094l3.16-1.469h2.315v11.941h-2.7V20.79z"/>
		<path d="M29.109,30.251v-2.849h-5.29v-1.818l4.521-7.274h3.414v6.999h1.437v2.094h-1.437v2.849H29.109z M29.109,25.309v-2.645
			c0-0.717,0.037-1.452,0.091-2.224h-0.073c-0.386,0.772-0.697,1.469-1.102,2.224l-1.597,2.608v0.037H29.109z"/>
		<path d="M17.438,36.87c-0.022-0.568-0.043-1.258-0.043-1.945h-0.021c-0.147,0.604-0.345,1.278-0.527,1.832l-0.576,1.851h-0.836
			l-0.507-1.836c-0.153-0.554-0.315-1.229-0.428-1.847h-0.014c-0.028,0.638-0.05,1.369-0.084,1.96l-0.084,1.798h-0.992l0.302-4.734
			h1.428l0.462,1.58c0.148,0.549,0.295,1.139,0.401,1.692h0.021c0.134-0.547,0.295-1.172,0.45-1.7l0.505-1.572h1.398l0.26,4.734
			h-1.046L17.438,36.87z"/>
		<path d="M20.459,37.469l-0.337,1.214h-1.11l1.447-4.734h1.406l1.469,4.734H22.18l-0.364-1.214H20.459z M21.661,36.667
			l-0.295-1.006c-0.085-0.28-0.168-0.631-0.239-0.913h-0.014c-0.071,0.282-0.141,0.64-0.218,0.913l-0.281,1.006H21.661z"/>
		<path d="M23.966,34.01c0.343-0.057,0.857-0.099,1.425-0.099c0.702,0,1.195,0.106,1.531,0.373c0.282,0.227,0.437,0.555,0.437,0.991
			c0,0.604-0.428,1.019-0.835,1.166v0.021c0.329,0.136,0.512,0.449,0.633,0.886c0.146,0.534,0.294,1.152,0.384,1.334h-1.095
			c-0.077-0.132-0.189-0.52-0.331-1.101c-0.126-0.591-0.33-0.754-0.766-0.761h-0.322v1.861h-1.061V34.01z M25.027,36.049h0.422
			c0.534,0,0.849-0.269,0.849-0.683c0-0.434-0.294-0.652-0.786-0.66c-0.26,0-0.407,0.022-0.484,0.034V36.049z"/>
		<path d="M31.583,38.551c-0.196,0.099-0.639,0.203-1.215,0.203c-1.639,0-2.48-1.018-2.48-2.367c0-1.617,1.15-2.518,2.586-2.518
			c0.555,0,0.977,0.113,1.166,0.211l-0.219,0.853c-0.217-0.094-0.518-0.178-0.898-0.178c-0.852,0-1.511,0.514-1.511,1.568
			c0,0.947,0.562,1.545,1.519,1.545c0.321,0,0.68-0.071,0.891-0.154L31.583,38.551z"/>
		<path d="M33.361,33.948v1.818h1.764v-1.818h1.067v4.734h-1.067v-1.979h-1.764v1.979h-1.074v-4.734H33.361z"/>
	</g>
	<path d="M35.096,11.049c0,1.053-0.854,1.907-1.905,1.907c-1.057,0-1.907-0.854-1.907-1.907c0-1.052,0.851-1.906,1.907-1.906
		C34.242,9.144,35.096,9.997,35.096,11.049z"/>
	<path fill="#FFFFFF" stroke="#000000" stroke-width="0.3813" stroke-miterlimit="10" d="M33.19,11.951
		c-0.704,0-1.274-0.569-1.274-1.271V3.772c0-0.702,0.57-1.27,1.274-1.27c0.701,0,1.27,0.568,1.27,1.27v6.909
		C34.46,11.382,33.892,11.951,33.19,11.951z"/>
	<circle cx="16.331" cy="11.049" r="1.906"/>
	<path fill="#FFFFFF" stroke="#000000" stroke-width="0.3813" stroke-miterlimit="10" d="M16.332,11.951
		c0.701,0,1.271-0.569,1.271-1.271V3.772c0-0.702-0.569-1.27-1.271-1.27c-0.702,0-1.271,0.568-1.271,1.27v6.909
		C15.061,11.382,15.629,11.951,16.332,11.951z"/>
</g>
</svg>
