<?xml version="1.0" encoding="utf-8"?>
<!-- Generator: Adobe Illustrator 16.0.0, SVG Export Plug-In . SVG Version: 6.00 Build 0)  -->
<!DOCTYPE svg PUBLIC "-//W3C//DTD SVG 1.1//EN" "http://www.w3.org/Graphics/SVG/1.1/DTD/svg11.dtd">
<svg version="1.1" id="Layer_1" xmlns="http://www.w3.org/2000/svg" xmlns:xlink="http://www.w3.org/1999/xlink" x="0px" y="0px"
	 width="346.563px" height="91.871px" viewBox="0 0 346.563 91.871" enable-background="new 0 0 346.563 91.871"
	 xml:space="preserve">
<path fill="#D6D6D6" d="M200.756,43.147c-5.938,9.054-11.543,17.597-17.508,26.688C166.121,46.319,149.383,23.334,132.391,0
	c-18.94,21.077-37.684,41.937-56.584,62.973c-6.556-7.19-12.595-13.815-18.913-20.751C37.577,58.251,18.788,73.843-0.001,89.436
	c5.047-1.4,9.423-4.265,14.227-5.67c13.671-3.998,27.739-12.339,40.723,1.725c0.115,0.125,0.484,0.016,1.283,0.016
	c-4.118-6.514-8.065-12.756-12.155-19.225c3.377-1.727,6.951-2.75,9.361-5.012c2.429-2.281,3.7-5.791,5.67-9.084
	c8.939,7.811,17.581,15.356,26.222,22.905c0.247-0.207,0.495-0.414,0.742-0.618c-1.054-2.55-2.107-5.097-3.133-7.572
	c2.001-0.767,4.29-0.965,5.498-2.211c9.169-9.469,21.521-13.707,32.462-20.259c3.26-1.951,5.794-1.854,9.037,0.033
	c7.676,4.474,15.588,8.539,23.405,12.771c0.173-0.268,0.345-0.534,0.517-0.803c-9.889-8.574-19.777-17.15-29.837-25.875
	c1.47-2.572,2.849-4.984,4.245-7.428c2.194,0.438,4.088,0.814,6.159,1.229c0.666-2.801,1.259-5.296,2.062-8.681
	c17.199,21.796,33.914,42.976,50.629,64.153c-3.475-6.996,3.125-9.107,5.664-13.742c3.391,5.459,6.332,10.191,9.521,15.326
	c0.755-9.303,1.457-18.002,2.162-26.701c0.593-0.16,1.185-0.318,1.775-0.479c1.139,1.414,2.195,2.904,3.432,4.227
	c9.213,9.865,18.412,19.744,27.746,29.494c1.551,1.619,3.742,2.625,5.64,3.914c0.254-0.342,0.508-0.684,0.762-1.023
	C229.582,75.08,215.35,59.314,200.756,43.147z"/>
<path fill="#D6D6D6" d="M218.758,30.041V14.414l-4.942,15.627h-3.547l-4.857-15.584v15.584h-4.646V0.477h4.646l6.631,19.556
	l6.716-19.556h4.646v29.564H218.758z"/>
<path fill="#D6D6D6" d="M244.188,22.27c0,4.309-2.238,8.194-7.814,8.194c-5.532,0-7.939-3.886-7.939-8.194v-5.574
	c0-5.322,2.829-8.278,7.939-8.278c4.9,0,7.814,3.167,7.814,8.278V22.27z M239.585,16.695c0-3.422-1.985-3.59-3.211-3.59
	c-1.436,0-3.294,0.506-3.294,3.59v5.997c0,2.45,1.563,3.21,3.294,3.21c1.732,0,3.211-0.93,3.211-3.21V16.695z"/>
<path fill="#D6D6D6" d="M259.691,30.041l-0.296-0.253c-0.676,0.253-1.646,0.718-3.167,0.718c-5.11,0-7.94-2.449-7.94-7.729V8.882
	h4.646v13.22c0,2.365,0.592,3.801,3.295,3.801c2.787,0,3.167-1.858,3.167-3.971V8.882h4.646v21.159H259.691z"/>
<path fill="#D6D6D6" d="M280.052,30.041V16.736c0-3.167-2.745-4.814-6.336-2.998v16.303h-4.604V8.882h4.097l0.549,0.252
	c1.647-0.549,4.646-1.098,7.35,0.17c2.111,0.971,3.59,2.914,3.59,6.124v14.613H280.052z"/>
<path fill="#D6D6D6" d="M295.851,30.59c-5.026-0.084-6.42-2.829-6.42-6.123V0.477h4.73v8.405h4.013l-1.014,4.35h-2.999v11.235
	c0,2.068,1.394,2.406,3.083,2.406L295.851,30.59z"/>
<path fill="#D6D6D6" d="M316.55,30.041c-6.716,0.635-16.262,1.9-16.262-7.137v-3.507c0-3.04,1.183-4.772,2.914-5.616
	c2.999-1.479,7.223-0.127,8.701,0.676c0-2.324-2.407-2.703-4.52-2.703l0.381-3.21c8.785,0,8.785,4.856,8.785,8.911V30.041z
	 M311.903,19.397c-1.563-1.098-6.927-3.04-6.927,0.592v2.323c0,2.745,1.816,4.52,6.927,3.633V19.397z"/>
<path fill="#D6D6D6" d="M321.198,2.504c0-1.311,1.182-2.45,2.533-2.45c1.31,0,2.45,1.14,2.45,2.45c0,1.351-1.141,2.534-2.45,2.534
	C322.38,5.038,321.198,3.854,321.198,2.504z M321.282,30.041V8.882h4.646v21.159H321.282z"/>
<path fill="#D6D6D6" d="M341.937,30.041V16.736c0-3.167-2.745-4.814-6.336-2.998v16.303h-4.604V8.882h4.097l0.549,0.252
	c1.647-0.549,4.646-1.098,7.35,0.17c2.111,0.971,3.59,2.914,3.59,6.124v14.613H341.937z"/>
<path fill="#D6D6D6" d="M264.255,80.734V55.857h-6.082v-4.688h16.979v4.688H268.9v24.877H264.255z"/>
<path fill="#D6D6D6" d="M291.922,72.963c0,4.309-2.239,8.193-7.813,8.193c-5.533,0-7.941-3.885-7.941-8.193v-5.575
	c0-5.321,2.83-8.278,7.941-8.278c4.898,0,7.813,3.168,7.813,8.278V72.963z M287.317,67.388c0-3.421-1.984-3.59-3.209-3.59
	c-1.437,0-3.295,0.507-3.295,3.59v5.997c0,2.45,1.563,3.211,3.295,3.211c1.731,0,3.209-0.93,3.209-3.211V67.388z"/>
<path fill="#D6D6D6" d="M307.425,80.734l-0.295-0.254c-0.676,0.254-1.647,0.719-3.168,0.719c-5.111,0-7.94-2.45-7.94-7.729V59.574
	h4.646v13.22c0,2.365,0.592,3.802,3.295,3.802c2.787,0,3.168-1.859,3.168-3.971V59.574h4.646v21.16H307.425z"/>
<path fill="#D6D6D6" d="M316.846,80.734v-21.16h4.309l0.338,0.169c2.956-1.014,4.941-0.465,7.18,0l-1.098,4.519
	c-2.83-1.436-6.082-0.084-6.082,2.873v13.6H316.846z"/>
<path fill="#D6D6D6" d="M334.8,74.906c0,0.76,0.76,2.111,3.167,2.111c2.027,0,2.915-1.225,2.915-2.323
	c0-4.435-9.504-2.069-10.222-9.376c-0.253-2.661,1.647-6.251,7.223-6.251c2.999,0,4.73,1.225,4.73,1.225l-1.352,4.308
	c0,0-0.972-0.971-3.379-0.971c-2.619,0-2.323,1.267-2.196,1.773c0.549,2.45,10.094,1.774,10.094,9.377
	c0,3.294-2.322,6.589-7.813,6.589c-5.026,0-7.687-2.83-7.813-5.998L334.8,74.906z"/>
</svg>
