<?xml version="1.0" encoding="utf-8"?>
<!-- Generator: Adobe Illustrator 16.0.0, SVG Export Plug-In . SVG Version: 6.00 Build 0)  -->
<!DOCTYPE svg PUBLIC "-//W3C//DTD SVG 1.1//EN" "http://www.w3.org/Graphics/SVG/1.1/DTD/svg11.dtd">
<svg version="1.1" id="Layer_1" xmlns="http://www.w3.org/2000/svg" xmlns:xlink="http://www.w3.org/1999/xlink" x="0px" y="0px"
	 width="50px" height="50px" viewBox="0 0 50 50" enable-background="new 0 0 50 50" xml:space="preserve">
<g>
	<path fill="#F7941E" d="M3,0C1.35,0,0,1.35,0,3v44c0,1.65,1.35,3,3,3h44c1.65,0,3-1.35,3-3v-6.251c0-1.65,0-4.149,0-5.555
		s0-3.904,0-5.555V3c0-1.65-1.35-3-3-3H3z"/>
</g>
<polygon fill="#F7941E" points="32.341,24.471 50,36.318 37.75,15.1 "/>
<polygon fill="#FFFFFF" points="37.75,13.727 31.746,24.127 32.936,24.814 37.75,16.472 49.405,36.661 50,36.318 50,34.945 "/>
<polyline fill="#F7941E" points="0,31.529 9.485,15.1 16.279,26.866 "/>
<polygon fill="#FFFFFF" points="9.485,13.727 0,30.158 0,31.529 0.595,31.872 9.485,16.472 15.685,27.209 16.874,26.523 "/>
<line fill="#F7941E" stroke="#FFFFFF" stroke-width="1.3724" stroke-miterlimit="10" x1="4.25" y1="47.698" x2="16.277" y2="26.864"/>
<polyline fill="#F7941E" stroke="#FFFFFF" stroke-width="1.3724" stroke-miterlimit="10" points="16.277,26.864 25,11.756 
	46.172,48.43 "/>
</svg>
