<?xml version="1.0" encoding="utf-8"?>
<!-- Generator: Adobe Illustrator 16.0.0, SVG Export Plug-In . SVG Version: 6.00 Build 0)  -->
<!DOCTYPE svg PUBLIC "-//W3C//DTD SVG 1.1//EN" "http://www.w3.org/Graphics/SVG/1.1/DTD/svg11.dtd">
<svg version="1.1" id="Layer_1" xmlns="http://www.w3.org/2000/svg" xmlns:xlink="http://www.w3.org/1999/xlink" x="0px" y="0px"
	 width="27.839px" height="50px" viewBox="0 0 27.839 50" enable-background="new 0 0 27.839 50" xml:space="preserve">
<g>
	<path fill="#F7941E" d="M3.664,0C1.649,0,0,1.649,0,3.664v42.672C0,48.352,1.649,50,3.664,50h20.511
		c2.016,0,3.664-1.648,3.664-3.664V3.664C27.839,1.649,26.19,0,24.175,0H3.664z M13.919,49.146c-1.132,0-2.052-0.919-2.052-2.053
		c0-1.132,0.919-2.052,2.052-2.052c1.132,0,2.052,0.92,2.052,2.052C15.972,48.227,15.051,49.146,13.919,49.146z M26.319,39.79
		c0,2.016-0.074,3.829-0.165,4.03c-0.09,0.201-2.217,0.366-4.232,0.366H5.917c-2.015,0-3.829-0.074-4.03-0.165
		c-0.202-0.09-0.367-2.216-0.367-4.231V8.402c0-2.015,0.074-3.829,0.165-4.03C1.775,4.17,3.902,4.005,5.917,4.005h16.005
		c2.015,0,3.829,0.074,4.031,0.165c0.201,0.091,0.366,2.217,0.366,4.232V39.79z"/>
</g>
</svg>
